<svg  height="54" viewBox="0 0 42 36" fill="none" xmlns="http://www.w3.org/2000/svg">
<path d="M10.037 3.156C9.59367 4.53667 9.182 5.78433 8.802 6.899C8.43467 8.01367 8.09267 9.03967 7.776 9.977C7.472 10.9143 7.187 11.782 6.921 12.58C6.655 13.3653 6.408 14.119 6.18 14.841C6.05333 15.677 5.64167 16.266 4.945 16.608C4.53967 16.798 4.05833 16.893 3.501 16.893C2.94367 16.893 2.52567 16.8297 2.247 16.703C1.96833 16.589 1.791 16.418 1.715 16.19C1.62633 15.962 1.62633 15.6897 1.715 15.373C1.791 15.0437 1.93033 14.6003 2.133 14.043C2.33567 13.473 2.589 12.7067 2.893 11.744C3.20967 10.7813 3.539 9.806 3.881 8.818C4.72967 6.348 5.401 4.638 5.895 3.688C6.085 3.33333 6.275 3.099 6.465 2.985C6.655 2.85833 6.83867 2.76967 7.016 2.719C7.19333 2.65567 7.358 2.586 7.51 2.51C7.662 2.434 7.795 2.244 7.909 1.94C8.03567 1.636 8.25733 1.427 8.574 1.313C8.90333 1.199 9.20733 1.19267 9.486 1.294C9.77733 1.38267 9.99267 1.58533 10.132 1.902C10.284 2.206 10.2523 2.624 10.037 3.156ZM13.8216 2.206L13.8406 2.491L13.8216 2.586L13.7456 2.681C13.6949 2.82033 13.6316 2.95967 13.5556 3.099C13.4796 3.23833 13.4099 3.37133 13.3466 3.498C13.3339 3.56133 13.3149 3.64367 13.2896 3.745C13.0109 4.17567 12.5992 4.73933 12.0546 5.436L11.7886 5.797C11.6999 5.89833 11.6239 5.99967 11.5606 6.101C11.4972 6.18967 11.4086 6.30367 11.2946 6.443C11.1806 6.56967 11.0032 6.69633 10.7626 6.823C10.5346 6.94967 10.3192 7.013 10.1166 7.013C9.92656 7.00033 9.76823 6.91167 9.64156 6.747C9.52756 6.56967 9.50223 6.291 9.56556 5.911H9.54656C9.55923 5.89833 9.56556 5.87933 9.56556 5.854V5.835C9.76823 4.733 9.88223 3.71333 9.90756 2.776C9.88223 2.87733 9.86956 2.966 9.86956 3.042C9.86956 3.10533 9.86323 3.175 9.85056 3.251C9.82523 3.31433 9.80623 3.30167 9.79356 3.213C9.7809 3.11167 9.7619 3.042 9.73656 3.004L9.88856 2.491L9.86956 2.396C9.9329 2.244 10.0026 2.13 10.0786 2.054C10.3192 1.56 10.6422 1.18 11.0476 0.913999C11.4529 0.635333 11.8519 0.489666 12.2446 0.476999C12.6372 0.464333 12.9856 0.590999 13.2896 0.856999C13.5936 1.123 13.7646 1.541 13.8026 2.111C13.8279 2.13633 13.8342 2.168 13.8216 2.206ZM16.1635 7.735C16.1888 7.49433 16.3408 7.298 16.6195 7.146C16.8981 6.994 17.2085 6.918 17.5505 6.918C17.8925 6.918 18.2218 7.00033 18.5385 7.165C18.8678 7.317 19.0895 7.583 19.2035 7.963C20.2801 7.02567 21.2618 6.66467 22.1485 6.88C22.4525 6.94333 22.7121 7.12067 22.9275 7.412C23.5735 6.79133 24.2891 6.386 25.0745 6.196C26.0625 6.158 26.7718 6.386 27.2025 6.88C27.2658 6.94333 27.3291 7.013 27.3925 7.089C27.5698 7.279 27.6711 7.40567 27.6965 7.469C27.9245 7.82367 27.9878 8.64067 27.8865 9.92C27.7471 11.5793 27.4305 13.245 26.9365 14.917C26.6705 15.7657 26.4298 16.2027 26.2145 16.228C26.0878 16.2533 25.9675 16.2533 25.8535 16.228C25.7521 16.2027 25.6571 16.1837 25.5685 16.171C25.4925 16.171 25.4481 16.247 25.4355 16.399C25.1821 16.7283 24.7958 16.893 24.2765 16.893C23.7698 16.893 23.3391 16.7347 22.9845 16.418C22.5918 16.0887 22.4525 15.7023 22.5665 15.259C22.6931 14.803 22.8325 14.3407 22.9845 13.872C23.1365 13.3907 23.3011 12.8967 23.4785 12.39C23.7825 11.5033 24.1181 10.5787 24.4855 9.616C24.2195 9.92 23.8585 10.4963 23.4025 11.345C22.9465 12.181 22.6615 12.6813 22.5475 12.846C22.3321 13.2767 22.1548 13.6187 22.0155 13.872C21.8761 14.1127 21.6861 14.309 21.4455 14.461C21.2175 14.6003 21.0021 14.689 20.7995 14.727C20.6095 14.765 20.4258 14.7713 20.2485 14.746C19.8305 14.6827 19.5328 14.5053 19.3555 14.214C19.3175 14.1127 19.2795 14.0113 19.2415 13.91C19.2035 13.8087 19.1718 13.6693 19.1465 13.492C19.1085 13.0993 19.1591 12.4597 19.2985 11.573L19.2605 11.63C19.4125 11.478 19.4631 11.44 19.4125 11.516C18.9058 12.238 18.6018 12.7003 18.5005 12.903C18.3991 13.1057 18.2915 13.3337 18.1775 13.587C18.0635 13.8277 17.9305 14.1127 17.7785 14.442C17.6265 14.7587 17.5061 15.0437 17.4175 15.297C17.3288 15.5503 17.2211 15.7973 17.0945 16.038C16.5245 17.026 15.5238 17.425 14.0925 17.235C13.7885 17.197 13.5288 17.121 13.3135 17.007C13.0981 16.9057 13.0095 16.7473 13.0475 16.532C13.1488 16.0253 13.3831 15.183 13.7505 14.005C14.4725 11.6743 14.9031 10.1733 15.0425 9.502C15.1311 9.274 15.2071 9.03967 15.2705 8.799C15.3465 8.55833 15.4225 8.34933 15.4985 8.172C15.6505 7.754 15.8721 7.60833 16.1635 7.735ZM22.7565 12.428V12.466C22.7818 12.4153 22.7818 12.4027 22.7565 12.428ZM12.507 21.118C12.9377 21.346 13.21 21.6817 13.324 22.125C13.0707 23.5437 12.8427 24.956 12.64 26.362C12.4373 27.7553 12.241 28.927 12.051 29.877C11.861 30.8143 11.728 31.5173 11.652 31.986C11.5887 32.4547 11.5127 32.9233 11.424 33.392L11.31 33.791C11.2847 33.9303 11.2593 34.057 11.234 34.171C11.2087 34.2977 11.1833 34.4307 11.158 34.57C10.8033 34.9753 10.322 35.178 9.714 35.178C9.068 35.178 8.555 35.0133 8.175 34.684C7.947 34.5067 7.909 34.133 8.061 33.563C8.12433 33.335 8.16233 33.0437 8.175 32.689C8.20033 32.3217 8.22567 32.0177 8.251 31.777V31.739C7.871 31.8783 7.529 32.062 7.225 32.29C6.921 32.5053 6.731 32.6447 6.655 32.708C6.579 32.7587 6.47767 32.803 6.351 32.841C6.22433 32.8663 6.11033 32.8853 6.009 32.898C5.76833 32.9107 5.60367 32.9487 5.515 33.012C4.78033 34.3293 4.12167 35.064 3.539 35.216C3.17167 35.33 2.80433 35.3553 2.437 35.292C2.06967 35.2413 1.77833 35.026 1.563 34.646C1.15767 34.266 1.259 33.2273 1.867 31.53C2.19633 30.6307 2.665 29.554 3.273 28.3C3.89367 27.0333 4.489 25.9313 5.059 24.994C6.28767 22.98 7.63667 21.2827 9.106 19.902C9.34667 19.8007 9.60633 19.6867 9.885 19.56C10.1637 19.4207 10.436 19.3447 10.702 19.332C10.9807 19.3193 11.2657 19.351 11.557 19.427C11.8483 19.503 12.0953 19.617 12.298 19.769C12.7667 20.1237 12.8363 20.5733 12.507 21.118ZM8.441 26.115C8.175 26.875 7.909 27.578 7.643 28.224C7.377 28.8573 7.149 29.4147 6.959 29.896L8.46 29.839C8.56133 29.0283 8.67533 28.224 8.802 27.426C8.92867 26.628 9.049 25.83 9.163 25.032L8.441 26.115ZM7.928 29.915C8.10533 29.915 8.28267 29.9023 8.46 29.877V29.858C8.29533 29.8707 8.14333 29.8833 8.004 29.896C7.86467 29.9087 7.83933 29.915 7.928 29.915ZM16.0496 34.057C15.9356 34.5637 15.5429 34.874 14.8716 34.988C14.2509 35.102 13.6619 35.0323 13.1046 34.779C12.4839 34.513 12.2116 34.1393 12.2876 33.658C12.2116 32.9233 12.5979 31.3273 13.4466 28.87C14.7133 25.184 15.9799 22.5493 17.2466 20.966C17.5759 20.5607 17.8546 20.301 18.0826 20.187C18.3233 20.0603 18.5956 19.9463 18.8996 19.845C19.2036 19.7437 19.5203 19.6487 19.8496 19.56C20.5083 19.3827 21.1289 19.2623 21.7116 19.199C22.3069 19.123 22.8389 19.1927 23.3076 19.408C23.7763 19.6107 24.1373 19.9147 24.3906 20.32C24.6566 20.7253 24.8213 21.2067 24.8846 21.764C24.9479 22.3087 24.9289 22.885 24.8276 23.493C24.7263 24.0883 24.5426 24.6963 24.2766 25.317C24.0106 25.925 23.6749 26.495 23.2696 27.027C22.3829 28.1923 21.3443 28.946 20.1536 29.288L20.3436 29.611C20.5083 29.8643 20.7046 30.143 20.9326 30.447C21.1733 30.751 21.4076 31.0613 21.6356 31.378C21.8763 31.6947 22.0916 32.0113 22.2816 32.328C22.4716 32.6447 22.6109 32.9423 22.6996 33.221C22.9023 33.8417 22.7439 34.2913 22.2246 34.57C21.8066 34.8233 21.4773 34.8867 21.2366 34.76C21.1353 34.6967 21.0339 34.6143 20.9326 34.513C20.8313 34.4243 20.6919 34.3483 20.5146 34.285C19.7673 34.5003 19.1973 34.3103 18.8046 33.715C18.5639 33.335 18.3803 32.9867 18.2536 32.67C18.1269 32.3533 18.0193 32.0873 17.9306 31.872C17.7026 31.4033 17.4429 30.998 17.1516 30.656C17.0123 30.998 16.8539 31.435 16.6766 31.967C16.4613 32.6383 16.2206 33.335 15.9546 34.057H16.0496ZM19.8876 22.999C19.6469 23.5437 19.4823 23.9237 19.3936 24.139C19.2163 24.5697 19.0199 25.0447 18.8046 25.564C18.7666 25.8427 18.7349 26.039 18.7096 26.153L18.9756 25.887L19.2986 25.735C19.5266 25.6083 19.7356 25.4943 19.9256 25.393C20.1156 25.2917 20.2866 25.165 20.4386 25.013C20.7299 24.7217 20.9833 24.2467 21.1986 23.588C21.1986 23.4613 21.2176 23.3347 21.2556 23.208C21.3063 23.0813 21.3379 22.9547 21.3506 22.828C21.4013 22.5493 21.2873 22.353 21.0086 22.239C20.7553 22.2137 20.4386 22.4227 20.0586 22.866C19.9826 22.9547 19.9256 22.999 19.8876 22.999ZM31.8202 21.156C31.3769 22.5367 30.9652 23.7843 30.5852 24.899C30.2179 26.0137 29.8759 27.0397 29.5592 27.977C29.2552 28.9143 28.9702 29.782 28.7042 30.58C28.4382 31.3653 28.1912 32.119 27.9632 32.841C27.8365 33.677 27.4249 34.266 26.7282 34.608C26.3229 34.798 25.8415 34.893 25.2842 34.893C24.7269 34.893 24.3089 34.8297 24.0302 34.703C23.7515 34.589 23.5742 34.418 23.4982 34.19C23.4095 33.962 23.4095 33.6897 23.4982 33.373C23.5742 33.0437 23.7135 32.6003 23.9162 32.043C24.1189 31.473 24.3722 30.7067 24.6762 29.744C24.9929 28.7813 25.3222 27.806 25.6642 26.818C26.5129 24.348 27.1842 22.638 27.6782 21.688C27.8682 21.3333 28.0582 21.099 28.2482 20.985C28.4382 20.8583 28.6219 20.7697 28.7992 20.719C28.9765 20.6557 29.1412 20.586 29.2932 20.51C29.4452 20.434 29.5782 20.244 29.6922 19.94C29.8189 19.636 30.0405 19.427 30.3572 19.313C30.6865 19.199 30.9905 19.1927 31.2692 19.294C31.5605 19.3827 31.7759 19.5853 31.9152 19.902C32.0672 20.206 32.0355 20.624 31.8202 21.156ZM33.5718 33.829C33.4071 34.4243 32.9891 34.8233 32.3178 35.026C31.7098 35.2033 31.1651 35.14 30.6838 34.836C30.1644 34.5193 29.9998 34.0507 30.1898 33.43C30.3544 32.7207 30.6711 31.587 31.1398 30.029C31.6084 28.471 31.9378 27.3753 32.1278 26.742C32.5711 25.1713 32.8498 24.1327 32.9638 23.626C33.3564 22.3593 33.6351 21.574 33.7998 21.27C33.9771 20.966 34.1291 20.757 34.2558 20.643C34.3824 20.5163 34.5851 20.3707 34.8638 20.206C35.1551 20.0413 35.4654 19.9147 35.7948 19.826C36.1241 19.7373 36.4534 19.6803 36.7828 19.655C37.1121 19.617 37.4478 19.5917 37.7898 19.579C38.1318 19.5537 38.5118 19.4903 38.9298 19.389C39.0944 19.389 39.2401 19.3763 39.3668 19.351C39.5061 19.3257 39.6391 19.3067 39.7658 19.294C40.0571 19.2687 40.3421 19.3003 40.6208 19.389C40.9121 19.4777 41.1274 19.636 41.2668 19.864C41.4188 20.092 41.4948 20.3517 41.4948 20.643C41.4948 20.9343 41.4314 21.2447 41.3048 21.574C41.1908 21.9033 41.0261 22.22 40.8108 22.524C40.3421 23.1827 39.7531 23.6513 39.0438 23.93C38.5498 24.082 38.1951 24.158 37.9798 24.158C37.7644 24.158 37.6124 24.1327 37.5238 24.082C37.4478 24.0313 37.4034 23.9933 37.3908 23.968C37.3781 23.9427 37.3338 23.987 37.2578 24.101C37.1438 24.2657 37.0614 24.4493 37.0108 24.652C36.9601 24.8547 36.9031 25.0067 36.8398 25.108C36.7764 25.1967 36.6878 25.3803 36.5738 25.659C36.4724 25.9377 36.3394 26.172 36.1748 26.362C36.0101 26.5393 35.9151 26.647 35.8898 26.685L37.5618 26.514C37.8278 26.4887 38.0558 26.5457 38.2458 26.685C38.4484 26.8117 38.5878 26.97 38.6638 27.16C38.7524 27.35 38.7778 27.54 38.7398 27.73C38.7018 27.9073 38.5878 28.0467 38.3978 28.148C38.2078 28.2367 38.0811 28.3317 38.0178 28.433C37.9671 28.5217 37.9228 28.6103 37.8848 28.699C37.8468 28.7877 37.7961 28.8763 37.7328 28.965C37.6821 29.0537 37.5618 29.136 37.3718 29.212C36.9664 29.402 36.1874 29.554 35.0348 29.668C34.9714 29.858 34.8828 30.086 34.7688 30.352C34.6674 30.6053 34.5598 30.8713 34.4458 31.15C34.1164 31.9987 33.9264 32.5117 33.8758 32.689C33.8378 32.8663 33.8061 33.012 33.7808 33.126C33.7048 33.468 33.6351 33.7023 33.5718 33.829Z" fill="url(#paint0_linear_52_2)"/>
<defs>
<linearGradient id="paint0_linear_52_2" x1="39" y1="18" x2="10.5" y2="26.5" gradientUnits="userSpaceOnUse">
<stop stop-color="#FFC700"/>
<stop stop-color="#FFD600"/>
<stop offset="1" stop-color="#A7F500"/>
</linearGradient>
</defs>
</svg>
